<svg xmlns="http://www.w3.org/2000/svg" viewBox="0 0 1280 720" role="img" aria-labelledby="title desc">
  <title id="title">Превью сайта клининга</title>
  <desc id="desc">Темный landing page для клининга с пакетами услуг и формой расчета.</desc>
  <defs>
    <linearGradient id="bg" x1="0" y1="0" x2="1" y2="1"><stop offset="0" stop-color="#06111d"/><stop offset=".65" stop-color="#0b1020"/><stop offset="1" stop-color="#10202b"/></linearGradient>
    <linearGradient id="accent" x1="0" y1="0" x2="1" y2="1"><stop offset="0" stop-color="#14b8a6"/><stop offset=".52" stop-color="#3b82f6"/><stop offset="1" stop-color="#8b5cf6"/></linearGradient>
    <filter id="glow"><feGaussianBlur stdDeviation="28"/></filter>
  </defs>
  <rect width="1280" height="720" fill="url(#bg)"/>
  <circle cx="1000" cy="120" r="180" fill="#14b8a6" opacity=".22" filter="url(#glow)"/>
  <circle cx="280" cy="620" r="180" fill="#3b82f6" opacity=".22" filter="url(#glow)"/>
  <rect x="88" y="72" width="1104" height="576" rx="36" fill="#0d1424" stroke="#fff" stroke-opacity=".12"/>
  <rect x="130" y="116" width="380" height="430" rx="30" fill="#101827" stroke="#fff" stroke-opacity=".1"/>
  <text x="166" y="196" fill="#fff" font-family="Arial, sans-serif" font-size="42" font-weight="800">Услуга клининга</text>
  <text x="168" y="242" fill="#94a3b8" font-family="Arial, sans-serif" font-size="23">Уборка квартир и офисов</text>
  <rect x="168" y="290" width="170" height="48" rx="24" fill="url(#accent)"/>
  <text x="206" y="321" fill="#fff" font-family="Arial, sans-serif" font-size="20" font-weight="700">Рассчитать</text>
  <rect x="168" y="386" width="270" height="18" rx="9" fill="#fff" opacity=".14"/>
  <rect x="168" y="426" width="220" height="18" rx="9" fill="#fff" opacity=".1"/>
  <g transform="translate(570 126)">
    <rect width="548" height="420" rx="30" fill="#111827" stroke="#fff" stroke-opacity=".1"/>
    <g transform="translate(40 44)">
      <rect width="130" height="130" rx="28" fill="#14b8a6" opacity=".22"/>
      <path d="M70 24c34 24 40 72 8 98-30-10-48-40-42-72 10 18 26 28 52 26-18-14-24-30-18-52z" fill="#6ee7b7"/>
      <rect x="164" y="0" width="130" height="130" rx="28" fill="#3b82f6" opacity=".18"/>
      <circle cx="230" cy="58" r="30" fill="#bfdbfe"/><rect x="204" y="94" width="56" height="12" rx="6" fill="#bfdbfe" opacity=".72"/>
      <rect x="328" y="0" width="130" height="130" rx="28" fill="#8b5cf6" opacity=".18"/>
      <path d="M380 32h42v74h-42z" fill="#ddd6fe"/><rect x="370" y="96" width="62" height="12" rx="6" fill="#ddd6fe"/>
    </g>
    <rect x="40" y="226" width="468" height="94" rx="24" fill="#050812" stroke="#fff" stroke-opacity=".08"/>
    <rect x="66" y="254" width="190" height="16" rx="8" fill="#fff" opacity=".22"/>
    <rect x="66" y="288" width="300" height="14" rx="7" fill="#fff" opacity=".11"/>
    <rect x="376" y="254" width="102" height="42" rx="21" fill="#ef233c"/>
  </g>
</svg>
