<svg xmlns="http://www.w3.org/2000/svg" viewBox="0 0 1280 720" role="img" aria-labelledby="title desc">
  <title id="title">Превью универсального сайта услуг</title>
  <desc id="desc">Темный лендинг услуги с оффером, преимуществами, FAQ и формой заявки.</desc>
  <defs>
    <linearGradient id="bg" x1="0" y1="0" x2="1" y2="1"><stop offset="0" stop-color="#050812"/><stop offset=".62" stop-color="#0b1020"/><stop offset="1" stop-color="#10213b"/></linearGradient>
    <linearGradient id="accent" x1="0" y1="0" x2="1" y2="1"><stop offset="0" stop-color="#14b8a6"/><stop offset=".55" stop-color="#3b82f6"/><stop offset="1" stop-color="#8b5cf6"/></linearGradient>
    <filter id="glow"><feGaussianBlur stdDeviation="28"/></filter>
  </defs>
  <rect width="1280" height="720" fill="url(#bg)"/>
  <circle cx="1020" cy="140" r="180" fill="#3b82f6" opacity=".24" filter="url(#glow)"/>
  <circle cx="260" cy="620" r="180" fill="#14b8a6" opacity=".18" filter="url(#glow)"/>
  <rect x="88" y="72" width="1104" height="576" rx="36" fill="#0d1424" stroke="#fff" stroke-opacity=".12"/>
  <rect x="132" y="122" width="510" height="374" rx="34" fill="#111827" stroke="#fff" stroke-opacity=".1"/>
  <text x="174" y="210" fill="#fff" font-family="Arial, sans-serif" font-size="44" font-weight="800">Услуга муж на час</text>
  <text x="176" y="256" fill="#94a3b8" font-family="Arial, sans-serif" font-size="24">Заявки из рекламы и мессенджеров</text>
  <rect x="176" y="306" width="176" height="48" rx="24" fill="url(#accent)"/>
  <text x="216" y="337" fill="#fff" font-family="Arial, sans-serif" font-size="20" font-weight="700">Оставить заявку</text>
  <rect x="176" y="402" width="350" height="18" rx="9" fill="#fff" opacity=".13"/>
  <rect x="176" y="442" width="290" height="18" rx="9" fill="#fff" opacity=".09"/>
  <g transform="translate(704 126)">
    <rect width="424" height="430" rx="34" fill="#101827" stroke="#fff" stroke-opacity=".1"/>
    <rect x="42" y="44" width="340" height="70" rx="24" fill="#050812" stroke="#fff" stroke-opacity=".08"/>
    <rect x="72" y="72" width="190" height="14" rx="7" fill="#fff" opacity=".18"/>
    <rect x="42" y="148" width="150" height="126" rx="24" fill="#14b8a6" opacity=".18"/>
    <rect x="232" y="148" width="150" height="126" rx="24" fill="#3b82f6" opacity=".18"/>
    <rect x="42" y="306" width="340" height="78" rx="24" fill="#050812" stroke="#fff" stroke-opacity=".08"/>
    <rect x="72" y="334" width="190" height="14" rx="7" fill="#fff" opacity=".18"/>
  </g>
</svg>
